<?xml version="1.0" encoding="utf-8"?>
<!-- Generator: Adobe Illustrator 23.0.2, SVG Export Plug-In . SVG Version: 6.00 Build 0)  -->
<svg version="1.1" id="Слой_1" xmlns="http://www.w3.org/2000/svg" xmlns:xlink="http://www.w3.org/1999/xlink" x="0px" y="0px"
	 viewBox="0 0 500 500" style="enable-background:new 0 0 500 500;" xml:space="preserve">
<style type="text/css">
	.st0{fill:#3E144A;}
	.st1{fill:#552066;}
	.st2{fill:none;stroke:#3E144A;stroke-width:10;stroke-miterlimit:10;}
</style>
<g>
	<path class="st1" d="M43,341.9c2.6-3.9,5.5-7.6,8.6-11.1c3.1-3.5,6.5-6.8,10.1-9.9c7.2-6,15.6-10.8,24.5-14
		c8.9-3.3,18.3-5.1,27.6-6.2c9.4-1,18.8-1.3,28.2-1.2c9.4,0.1,18.8,0.6,28.1,1.1c9.4,0.6,18.7,1.3,28,2.1l55.9,4.7
		c18.6,1.5,37.2,2.9,55.8,3.9c9.3,0.5,18.6,0.8,27.9,0.9c9.3,0.1,18.6,0,27.9-0.4c18.5-1,37.2-3.1,54.8-8.9
		c8.8-2.9,17.3-6.8,24.9-12.1c7.6-5.3,14.2-12.1,19.2-20c-2.3,4.1-5,7.9-8.1,11.4c-3.1,3.5-6.6,6.7-10.3,9.6
		c-7.5,5.7-16.1,10-24.9,13.2c-8.9,3.3-18.1,5.5-27.3,7.1c-9.3,1.7-18.6,2.7-28,3.3c-9.4,0.7-18.8,0.9-28.1,1
		c-9.4,0-18.8-0.2-28.1-0.5c-18.7-0.7-37.4-2-56-3.5c-18.6-1.4-37.3-3.2-55.9-4.8c-18.6-1.6-37.2-3.4-55.8-3.9
		c-9.3-0.3-18.6-0.2-27.8,0.6c-9.2,0.8-18.4,2.3-27.1,5.2c-8.8,2.9-17.1,7.1-24.4,12.7C55.1,327.7,48.7,334.5,43,341.9z"/>
</g>
<g>
	<path class="st1" d="M131.5,184.7c-4.5,0-5.1,0-5.1-1.1c0-1,0.7-1.2,1.6-1.2c8.3-0.9,9.7-2.7,16.7-28.3h-17.9l-3.2-0.1
		c-2.9-0.1-4.6,1.6-8.2,6.1c-4.1,5.1-11.5,14.1-11.5,18.7c0,3,3.8,3.5,5.2,3.6c3.3,0.4,4.1,0.5,4.1,1.4c0,1-1.1,1-1.7,1
		c-2.9,0-3.7,0-12-0.1l-12.9-0.1c-0.6,0-1.4-0.1-1.4-0.7c0-1,1.1-1.2,1.9-1.4c7.6-1.5,13.1-8.2,18.1-14.1
		c13.1-15.7,26.5-31.7,39.8-47.2c1.9-2.2,10-12.5,12-14.1c3.2-1,8.2-2,11.5-2.6c-2.2,9.1-17.2,65.2-17.5,67.5
		c-0.1,1.1-0.1,2.1-0.1,3c0,5.3,3.7,7.4,6.8,7.9c2.1,0.4,2.4,0.4,2.4,1.1c0,1.2-1.4,1.2-1.7,1.2c-1.7,0-9.4-0.4-11-0.4L131.5,184.7z
		 M145.7,151.1c0.2-0.7,9.7-32.9,9.7-34.5c0-0.4-0.2-1.1-0.9-1.1c-1.1,0-2.2,1-5.1,4.3c-8.6,9.8-19.7,23.4-23.1,27.5
		c-1.2,1.5-1.4,1.6-1.4,2.4c0,0.9,0.9,1.2,1.6,1.2L145.7,151.1z"/>
	<path class="st1" d="M193.9,154.6c3-5.6,12.8-21.5,22.2-21.5c4.8,0,6,4.7,6,6.8c0,5.2-0.9,7.7-7.9,27.3c-1.1,3-3.5,9.8-3.5,12.3
		c0,1.2,0.9,2,1.7,2c2.6,0,8.1-5.3,9.7-7.9c1.5-2.5,2.1-2.7,2.7-2.7c0.9,0,1,1,1,1.2c0,2.4-9.4,14.5-18.1,14.5
		c-5.3,0-5.6-4.1-5.6-4.7c0-4,3.7-14.4,5.3-18.7c5.7-15.5,6.9-18.5,6.9-22.8c0-1.2-0.2-2.7-2-2.7c-2.5,0-10,5.1-19.6,23.6
		c-4.2,8.3-5.2,10.7-10.4,22.3c-1.1,2.6-1.2,2.9-1.9,2.9c-1.1,0-6,0-6-1.5c0-1.1,14.4-38.9,14.4-45.3c0-1-0.9-1.7-1.7-1.7
		c-2.2,0-7.9,5.5-10.3,8.6c-1.2,1.6-1.7,2.1-2.5,2.1c-0.6,0-0.9-0.5-0.9-1c0-1.4,4.1-5.7,5.8-7.6c6.1-6.6,11.5-6.9,13.4-6.9
		c3,0,3.8,3,3.8,4.3c0,3.7-1.7,11.5-2.6,15.4c-0.1,0.6-0.4,1.6-0.4,1.9H193.9z"/>
	<path class="st1" d="M253.3,154.6c3-5.6,12.8-21.5,22.2-21.5c4.8,0,6,4.7,6,6.8c0,5.2-0.9,7.7-7.9,27.3c-1.1,3-3.5,9.8-3.5,12.3
		c0,1.2,0.9,2,1.7,2c2.6,0,8.1-5.3,9.7-7.9c1.5-2.5,2.1-2.7,2.7-2.7c0.9,0,1,1,1,1.2c0,2.4-9.4,14.5-18.1,14.5
		c-5.3,0-5.6-4.1-5.6-4.7c0-4,3.7-14.4,5.3-18.7c5.7-15.5,6.9-18.5,6.9-22.8c0-1.2-0.2-2.7-2-2.7c-2.5,0-10,5.1-19.6,23.6
		c-4.2,8.3-5.2,10.7-10.4,22.3c-1.1,2.6-1.2,2.9-1.9,2.9c-1.1,0-6,0-6-1.5c0-1.1,14.4-38.9,14.4-45.3c0-1-0.9-1.7-1.7-1.7
		c-2.2,0-7.9,5.5-10.3,8.6c-1.2,1.6-1.7,2.1-2.5,2.1c-0.6,0-0.9-0.5-0.9-1c0-1.4,4.1-5.7,5.8-7.6c6.1-6.6,11.5-6.9,13.4-6.9
		c3,0,3.8,3,3.8,4.3c0,3.7-1.7,11.5-2.6,15.4c-0.1,0.6-0.4,1.6-0.4,1.9H253.3z"/>
	<path class="st1" d="M340.8,134.2c-2.6,6.2-6.2,17.7-8.6,25.3c-4.8,15.5-5.2,17.2-5.2,19.6c0,1,0.7,2,1.9,2c2.2,0,6.6-3.7,9.4-6.9
		c1.1-1.4,1.6-2,2.4-2c0.4,0,1,0.6,1,1c0,1.7-10.8,12.9-18.4,12.9c-3.3,0-3.5-3.2-3.5-4.8c0-3.2,0.2-6.1,0.4-8.2l-0.2-0.2
		c-6.8,9.5-14.1,12.6-19.3,12.6c-8.7,0-8.7-10.2-8.7-10.5c0-15,19.3-41.9,33.6-41.9c0.9,0,5.6,0,6.3,7.6h0.2
		c0.9-2.5,1.4-3.5,3.3-7.3L340.8,134.2z M300.8,172.6c0,0.6-0.1,7.8,5.5,7.8c5.1,0,10.4-6,14.4-13.4c4.1-7.4,6.9-16.5,6.9-22.7
		c0-4-1.9-8.1-5.3-8.1C312.6,136.2,300.8,159.9,300.8,172.6z"/>
	<path class="st1" d="M359.9,129.3c-0.7,0-1.2-0.5-1.2-0.9c0-1,0.5-1.2,4.3-3.7c2.4-1.5,6.9-6.6,6.9-8.9c0-0.7-1.4-1.4-3-2.2
		c-2-1.1-2.7-3.5-2.7-4.6c0-1.4,1-4.8,5.1-4.8c4.5,0,7.2,4.1,7.2,7.9C376.5,121.2,361.4,129.3,359.9,129.3z"/>
	<path class="st1" d="M390.7,186.4c-8.1,0-12.6-5.7-12.6-9.2c0-2.1,1.6-5.2,4.8-5.2c1.9,0,4.3,1.1,4.3,4.1c0,0.7-1.1,3.7-1.1,4.3
		c0,2.1,2.6,3.2,5.5,3.2c8.4,0,9.5-6.8,9.5-8.8c0-3.7-1.9-6.2-6.1-11.9c-1.1-1.5-6.3-8.8-6.3-14.9c0-6.8,5.7-15.4,14.8-15.4
		c6.2,0,11.2,4.1,11.2,7.9c0,2.7-2.1,4.7-4.3,4.7c-3.3,0-3.3-3.2-3.3-3.5c0-0.1,0-3.8-0.1-4c-0.5-1.6-3.1-2.5-4.8-2.5
		c-1.9,0-7.4,1.2-7.4,7.3c0,3.7,3.1,7.6,8.2,14c3.6,4.5,5.2,9.2,5.2,12.2C407.9,178.8,399.7,186.4,390.7,186.4z"/>
	<path class="st1" d="M123.5,244.1c-3,10.9-3.1,12.2-5.8,23.1c0,0.2-0.5,2.1-1.5,2.1c-0.5,0-1.1-0.5-1.1-1.1c0-0.9,0.7-5.2,0.7-6.2
		c0-12.6-13.8-12.2-21.1-11.8c-1,3.5-1.5,4.7-4.7,15.7c-3.3,11.5-3.6,13-3.6,15.6c0,3.5,4.2,5.8,5.7,6.1c3.8,0.7,4.3,0.7,4.3,1.7
		c0,0.9-0.9,1-1.7,1c-3.7,0-20-1-23.3-1c-1.4,0-7.8,0.4-8.7,0.1c-0.6-0.1-1.1-0.5-1.1-1.2c0-1,0.9-1.1,3.2-1.1
		c7.7-0.6,9.1-4.6,10.5-9.1c2.1-6,15.4-49.6,15.4-58.5c0-5.2-7.2-5.7-7.9-5.7s-2.2-0.1-2.2-1.1c0-1.4,1.6-1.4,2.1-1.4
		c4.1,0,22.3,0.5,26,0.5c6,0.1,35.1,0.5,37.4,0.4c0.2,4.2,0,14.4-0.4,18.4s-0.5,4.5-1.4,4.5c-1.1,0-1.5-1.2-1.6-2.2
		c-0.5-3.3-3.5-13.9-9.1-16.5c-2.9-1.4-5.3-2-19.5-2c-5.1,0-6.9,0.4-8.2,0.6c-3.7,6.3-8.2,23.4-10.3,32.5c16.9,0.4,20.7-0.6,25-7.2
		c0.6-1,3-6.3,4-6.3c0.6,0,1,0.7,1,1.4L123.5,244.1z"/>
	<path class="st1" d="M170.9,213.6c0-3.2-4.6-3.5-6.2-3.5c-2.2-0.1-3.5-0.1-3.5-1.2c0-1.2,2-1.2,2.6-1.2c2.9,0,16.4-0.6,17.7-0.6
		c-1.5,5.6-23.7,75.6-23.7,80.1c0,0.6,0.4,0.9,0.7,0.9c1.7,0,7.8-4.3,12.4-9.7c0.6-0.6,3-4.2,3.7-4.2c0.6,0,1.1,0.5,1.1,1
		c0,1.5-10.2,16.1-20,16.1c-1.2,0-4.8-0.7-4.8-5.5c0-5.6,0.7-8.1,11.3-41.5C168.2,225.7,170.9,216.7,170.9,213.6z"/>
	<path class="st1" d="M225.1,259.1c0,14.3-11.3,32.2-28,32.2c-15.9,0-16-18.5-16-19.3c0-17.1,13.6-33.6,26.8-33.6
		C220.2,238.4,225.1,250.2,225.1,259.1z M189.5,278.2c0,5.5,2.7,10.7,7.4,10.7c9.9,0,20.2-21.6,20.2-36.6c0-1.9,0-11.4-8.1-11.4
		C198.8,240.9,189.5,264.2,189.5,278.2z"/>
	<path class="st1" d="M258.4,246.3c-0.4,0.4-2.4,1.4-3.7,1.4c-1,0-2.6-1.1-3-1.4c-3.2-2.4-6.4-4.7-9.4-4.7c-0.9,0-2.7,0.5-2.7,1.5
		c0,0.7,0.5,1,1.9,1.6c2.5,1.1,2.6,4,2.6,4.3c0,1.7-1.5,4.3-4.6,4.3c-3.2,0-5.7-2.4-5.7-5.2c0-5.6,6.4-9.8,12.4-9.8
		c3.2,0,5.7,1,8.6,2.4c0.9,0.5,4.1,1.9,4.8,1.9c1.4,0,2.7-1.6,4-3.2c0.4-0.5,1.1-1.2,2-1.2c0.6,0,1,0.6,1,1.1s-0.1,1-1.5,2.6
		c-1.9,2.2-8.7,12-11.7,18.5c-2.5,5.5-3.7,9.9-3.7,13.8c0,2.7,1.5,11.4,8.2,11.4c3.3,0,6.3-1.1,12.2-6.7c0.7-0.6,3.5-3.8,4-4.5
		c-1-18,6-35.3,13.3-35.3c4,0,4.7,3.7,4.7,6.4c0,4.1-2.6,15.4-10.8,24.8c3.2,12.9,8.3,14.3,10.2,14.3c7.9,0,17-15.5,17-27
		c0-3-0.2-4.1-1.7-11.3c-0.1-0.6-0.2-1.4-0.2-2.2c0-2.7,2.1-4,3.6-4c2.5,0,4.3,1.6,4.3,5.6c0,7.6-4.6,21.9-6,25.5
		c-2.5,6.6-10.8,19.6-21.7,19.6c-7.1,0-11.8-4.8-12.6-12c-4.3,4.6-12.2,12.8-21.8,12.8c-6.8,0-9.9-5.2-9.9-10.4
		c0-9.9,8.7-23.9,16.5-34.5L258.4,246.3z M287.9,247.8c0-0.4,0-5-2.5-5c-2,0-6.4,6.2-6.4,14.3c0,1.4,0.1,5.1,1.1,9.7
		C282.4,263.8,287.9,256.4,287.9,247.8z"/>
	<path class="st1" d="M325.9,281.3c0,2.2,1.5,6.7,5.6,6.7c5.2,0,11.2-5,14.5-10.3c0.9-1.2,1.5-2.1,2.6-2.1c0.7,0,1.1,0.7,1.1,1.1
		c0,3.1-9.7,14.5-20.6,14.5c-8.4,0-12-7.7-12-13.5c0-10,6.2-20.1,11.9-27.4c6-7.7,12.6-12.3,19.1-12.3c5.1,0,8.2,4.5,8.2,7.9
		c0,6.2-5.6,12-11.3,15.6c-5.8,3.7-14,6.1-17.1,7.1C327,272.5,325.9,277.2,325.9,281.3z M350.2,244.1c0-1.1-0.9-3.6-3.2-3.6
		c-3.1,0-7.8,3.1-11.5,8.9c-3,4.7-5.1,11.3-6.6,16.5C345.7,258.5,350.2,247.9,350.2,244.1z"/>
	<path class="st1" d="M363.2,291.2c0.4-1.4,1-2.2,3.6-11.3c4.3-14.8,8.8-33,8.8-36.1c0-0.9-0.6-1.2-1-1.2c-1.2,0-6.2,4.3-9.9,9.7
		c-0.7,1.1-1.9,2.7-2.9,2.7c-0.5,0-1-0.5-1-1c0-1.1,10-15.7,17.2-15.7c3.5,0,5,2.5,5,4.6c0,2-1.4,10.7-1.5,12.2l0.2,0.2
		c3.3-5.7,10.5-17,17.9-17c5.1,0,6.3,3.7,6.3,5.7c0,2.5-1.7,6-5.1,6c-0.6,0-4-0.1-4.8-3.5c-0.5-1.6-0.7-2.4-1.6-2.4
		c-4.1,0-13.5,17.4-15.3,21c-2.5,7.8-6.2,18.8-7.6,23.4c-0.2,0.9-0.5,1.5-1,2.7H363.2z"/>
	<path class="st1" d="M417.9,291.4c-8.1,0-12.6-5.7-12.6-9.2c0-2.1,1.6-5.2,4.8-5.2c1.9,0,4.3,1.1,4.3,4.1c0,0.7-1.1,3.7-1.1,4.3
		c0,2.1,2.6,3.2,5.5,3.2c8.4,0,9.5-6.8,9.5-8.8c0-3.7-1.9-6.2-6.1-11.9c-1.1-1.5-6.3-8.8-6.3-14.9c0-6.8,5.7-15.4,14.8-15.4
		c6.2,0,11.2,4.1,11.2,7.9c0,2.7-2.1,4.7-4.3,4.7c-3.3,0-3.3-3.2-3.3-3.5c0-0.1,0-3.8-0.1-4c-0.5-1.6-3.1-2.5-4.8-2.5
		c-1.9,0-7.4,1.2-7.4,7.3c0,3.7,3.1,7.6,8.2,14c3.6,4.5,5.2,9.2,5.2,12.2C435.1,283.8,426.9,291.4,417.9,291.4z"/>
</g>
</svg>
